<mxfile host="65bd71144e">
    <diagram id="wRjiMlr_BnUCu_LpbtLl" name="Page-1">
        <mxGraphModel dx="990" dy="1086" grid="1" gridSize="10" guides="1" tooltips="1" connect="1" arrows="1" fold="1" page="1" pageScale="1" pageWidth="850" pageHeight="1100" math="0" shadow="0">
            <root>
                <mxCell id="0"/>
                <mxCell id="1" parent="0"/>
                <mxCell id="11" value="" style="rounded=0;whiteSpace=wrap;html=1;fontSize=24;fillColor=#3B6333;" vertex="1" parent="1">
                    <mxGeometry x="65" y="370" width="310" height="580" as="geometry"/>
                </mxCell>
                <mxCell id="2" value="" style="rounded=0;whiteSpace=wrap;html=1;fillColor=#60a917;fontColor=#ffffff;strokeColor=#2D7600;" vertex="1" parent="1">
                    <mxGeometry x="100" y="460" width="240" height="470" as="geometry"/>
                </mxCell>
                <mxCell id="3" value="局部变量表" style="text;html=1;strokeColor=none;fillColor=none;align=center;verticalAlign=middle;whiteSpace=wrap;rounded=0;fontSize=24;" vertex="1" parent="1">
                    <mxGeometry x="150" y="480" width="130" height="30" as="geometry"/>
                </mxCell>
                <mxCell id="4" value="a(int)" style="rounded=0;whiteSpace=wrap;html=1;fontSize=24;fillColor=#3B6333;fontColor=#ffffff;strokeColor=#2D7600;" vertex="1" parent="1">
                    <mxGeometry x="160" y="530" width="120" height="60" as="geometry"/>
                </mxCell>
                <mxCell id="5" value="b(char)" style="rounded=0;whiteSpace=wrap;html=1;fontSize=24;fillColor=#3B6333;fontColor=#ffffff;strokeColor=#2D7600;" vertex="1" parent="1">
                    <mxGeometry x="160" y="610" width="120" height="60" as="geometry"/>
                </mxCell>
                <mxCell id="9" style="edgeStyle=none;html=1;entryX=0;entryY=0.5;entryDx=0;entryDy=0;fontSize=24;" edge="1" parent="1" source="6" target="8">
                    <mxGeometry relative="1" as="geometry"/>
                </mxCell>
                <mxCell id="6" value="c(String)&lt;br&gt;(对象引用)" style="rounded=0;whiteSpace=wrap;html=1;fontSize=24;fillColor=#3B6333;fontColor=#ffffff;strokeColor=#2D7600;" vertex="1" parent="1">
                    <mxGeometry x="160" y="690" width="120" height="60" as="geometry"/>
                </mxCell>
                <mxCell id="7" value="..." style="rounded=0;whiteSpace=wrap;html=1;fontSize=24;fillColor=#3B6333;fontColor=#ffffff;strokeColor=#2D7600;" vertex="1" parent="1">
                    <mxGeometry x="160" y="770" width="120" height="120" as="geometry"/>
                </mxCell>
                <mxCell id="8" value="堆&lt;br&gt;Heap" style="rounded=0;whiteSpace=wrap;html=1;fontSize=24;fillColor=#0050ef;fontColor=#ffffff;strokeColor=#001DBC;" vertex="1" parent="1">
                    <mxGeometry x="450" y="650" width="120" height="140" as="geometry"/>
                </mxCell>
                <mxCell id="12" value="栈帧" style="text;html=1;strokeColor=none;fillColor=none;align=center;verticalAlign=middle;whiteSpace=wrap;rounded=0;fontSize=24;" vertex="1" parent="1">
                    <mxGeometry x="190" y="400" width="60" height="30" as="geometry"/>
                </mxCell>
            </root>
        </mxGraphModel>
    </diagram>
</mxfile>